<svg version="1.1" id="Layer_1" xmlns="http://www.w3.org/2000/svg" xmlns:xlink="http://www.w3.org/1999/xlink" x="0px" y="0px" viewBox="0 0 220 30" enable-background="new 0 0 220 30" xml:space="preserve" width="220" height="30" class="icon icon-logo">
                                <style type="text/css">
                                    .st0{fill:#0363F7;}
                                </style>
                                <g id="Brooks_Logo_-_Horizontal_4_">
                                    <g>
                                        <path id="Brooks_Logo" fill="#ffffff" class="st0" d="M18.6,1.3c0,0,0-0.1,0.5-0.1c4.3,0.2,14.8,0.9,26.4,3.9c15.1,3.9,20.9,7.4,16.1,8.4
                                            c-4.8,1-23.3,0.5-43.1,13.1c-1.4,0.9-3.4,2-8.6,0.4c-2-0.6-4.4-1.4-7.2-2.9c-12.2-6.3,21.8-10.6,27.8-11.5
                                            c6.9-0.9,13.8-1.5,7.6-4.9c-1.5-0.8-5.4-3-19-6.2C19.1,1.6,18.5,1.5,18.6,1.3z"></path>
                                    </g>
                                    <g>
                                        <g>
                                            <path class="st0" id="Brooks_Logo" fill="#ffffff" d="M99.5,3.9c0.4-1.2,1-1.8,3.6-1.8l6.9,0c4.3,0,7.1,0.8,8.6,2.4c1,1.1,1.4,2.5,1.2,4.3
                                                c-0.4,4.4-2.7,6.9-7.6,8.5l-0.2,0.1l3.4,9c0.1,0.3-0.1,0.6-0.4,0.6h-4.2c-1.2,0-2.2-0.7-2.5-1.7l-2.6-6.7l-4.2,0L99,26.2
                                                c-0.1,0.3-0.5,0.6-0.8,0.6H93c-0.3,0-0.5-0.3-0.4-0.5L99.5,3.9z M105.1,6.8l-2.1,6.8l4,0c3.1,0,5.8,0,6.2-4
                                                c0.1-0.8-0.1-1.3-0.5-1.8c-0.7-0.7-2-1-4.2-1L105.1,6.8z"></path>
                                            <path class="st0" id="Brooks_Logo" fill="#ffffff" d="M154.4,27.2c-3.3,0-6.2-1.2-7.7-3.2c-1.2-1.6-1.5-3.6-0.9-5.8l1.3-4.5c2.5-8.8,6.5-12,15.3-12l0.4,0
                                                c3.3,0,6.2,1.2,7.7,3.2c1.2,1.6,1.5,3.6,0.9,5.8l-1.3,4.5c-2.5,8.8-5.2,12-15.3,12L154.4,27.2z M160.9,7
                                                c-3.7,0.1-5.9,2.1-7.2,6.5l-1.1,4.1c-0.2,0.6-0.2,1.2-0.2,1.7c0.2,1.7,1.5,2.5,3.8,2.6c3.7-0.1,5.9-2.1,7.2-6.5l1.1-4.1
                                                c0.2-0.6,0.2-1.2,0.2-1.7C164.6,7.9,163.3,7,160.9,7L160.9,7L160.9,7z"></path>
                                            <path class="st0" id="Brooks_Logo" fill="#ffffff" d="M175,26.8c0.4,0,0.7-0.3,0.8-0.6l3.1-9.9c0.3,0,0.6,0.2,0.8,0.5l4.4,8.5c0.5,1,1.5,1.5,2.5,1.5h4.5
                                                c0.3,0,0.5-0.3,0.4-0.6L186,15.5c-0.1-0.3-0.1-0.6,0.1-0.8l13.2-12.2c0.2-0.2,0.1-0.5-0.2-0.5l-5.3,0c-0.9,0-1.8,0.4-2.4,1
                                                L181,12.8c-0.3,0.3-0.7,0.4-1,0.4l3.3-10.6c0.1-0.3-0.1-0.6-0.4-0.6l-5.2,0c-0.4,0-0.7,0.2-0.8,0.6l-7.3,23.7
                                                c-0.1,0.3,0.1,0.5,0.4,0.5H175z"></path>
                                            <path class="st0" id="Brooks_Logo" fill="#ffffff" d="M215,6.9l-5.3,0c-2,0-3.8,0.3-4.1,2.6c-0.1,1,0.6,1.4,2.1,2l4.4,1.6c2.5,0.9,3.8,2.9,3.5,5.4
                                                c-0.8,6.9-5.8,8.3-13.1,8.3l-8.2,0c-0.3,0-0.6-0.3-0.6-0.7c0.5-4.3,4.9-4.2,4.9-4.2l5.4,0c2.9,0,4.5-1.1,4.7-3.3
                                                c0.1-1.1-0.5-1.9-2.1-2.6l-4.4-1.6c-2.4-1-3.6-2.7-3.4-4.8c0.7-6.4,5.3-7.7,12.5-7.7l8.1,0c0.3,0,0.6,0.3,0.5,0.6
                                                C219.7,4,218.7,6.9,215,6.9z"></path>
                                            <path class="st0" id="Brooks_Logo" fill="#ffffff" d="M128.3,27.2c-3.3,0-6.2-1.2-7.7-3.2c-1.2-1.6-1.5-3.6-0.9-5.8l1.3-4.5c2.5-8.8,6.5-12,15.3-12l0.4,0
                                                c3.3,0,6.2,1.2,7.7,3.2c1.2,1.6,1.5,3.6,0.9,5.8l-1.3,4.5c-2.5,8.8-5.2,12-15.3,12L128.3,27.2z M134.9,7
                                                c-3.7,0.1-5.9,2.1-7.2,6.5l-1.1,4.1c-0.2,0.6-0.2,1.2-0.2,1.7c0.2,1.7,1.5,2.5,3.8,2.6c3.7-0.1,5.9-2.1,7.2-6.5l1.1-4.1
                                                c0.2-0.6,0.2-1.2,0.2-1.7C138.5,7.9,137.2,7,134.9,7L134.9,7L134.9,7z"></path>
                                            <path class="st0" id="Brooks_Logo" fill="#ffffff" d="M86.1,2.1c3.7,0,6.4,0.8,7.8,2.4C94.8,5.4,95.1,6.6,95,8c-0.3,3-1.7,4.6-5.2,6l-0.4,0.2l0.4,0.2
                                                c1.5,0.9,2.3,2.6,2.1,4.4c-0.8,8-7.5,8-14.6,8l-5.8,0c-1.3,0-2.7,0.1-3.2-0.4c-0.7-0.7-0.3-1.9-0.3-1.9l6.4-20.6
                                                c0.4-1.2,1-1.8,3.6-1.8L86.1,2.1z M80,22.1c2.4,0,5.3,0.2,5.5-3c0.1-0.8-0.1-1.4-0.6-1.9c-0.6-0.6-1.7-0.9-3.2-0.9l-4.7,0
                                                l-1.8,5.7L80,22.1z M78.4,12h4.7c3,0,5-0.4,5.3-2.9c0.1-0.6,0-1.1-0.4-1.5c-0.6-0.7-2-0.8-4.8-0.8l-3.3,0L78.4,12z"></path>
                                        </g>
                                    </g>
                                </g>
                        </svg>