<?xml version="1.0" encoding="utf-8"?>
<!-- Generator: Adobe Illustrator 16.0.0, SVG Export Plug-In . SVG Version: 6.00 Build 0)  -->
<!DOCTYPE svg PUBLIC "-//W3C//DTD SVG 1.1//EN" "http://www.w3.org/Graphics/SVG/1.1/DTD/svg11.dtd">
<svg version="1.1" id="Layer_1" xmlns="http://www.w3.org/2000/svg" xmlns:xlink="http://www.w3.org/1999/xlink" x="0px" y="0px"
	 width="1000px" height="200px" viewBox="0 0 1000 200" enable-background="new 0 0 1000 200" xml:space="preserve">
<g>
	<g>
		<path fill="#F49416" d="M468.194,33c7.006,6.412,10.51,15.331,10.51,26.75c0,11.423-3.416,20.463-10.248,27.119
			c-6.833,6.658-17.256,9.985-31.27,9.985h-25.121V23.383h25.961C451.13,23.383,461.186,26.589,468.194,33z M456.159,76.673
			c4.028-3.784,6.044-9.284,6.044-16.501s-2.016-12.771-6.044-16.66c-4.03-3.889-10.213-5.833-18.552-5.833h-9.144v44.671h10.406
			C446.366,82.349,452.128,80.458,456.159,76.673z"/>
		<path fill="#F49416" d="M554.382,82.349c8.058,0,14.646-3.187,19.762-9.565l10.51,10.827c-8.34,9.39-18.167,14.083-29.483,14.083
			c-11.317,0-20.637-3.574-27.958-10.721c-7.324-7.148-10.984-16.169-10.984-27.066c0-10.896,3.731-19.987,11.193-27.275
			c7.463-7.287,16.59-10.932,27.381-10.932c12.053,0,22.143,4.591,30.272,13.769l-10.196,11.562
			c-5.187-6.446-11.633-9.67-19.339-9.67c-6.168,0-11.44,2.015-15.819,6.044c-4.381,4.03-6.569,9.46-6.569,16.293
			c0,6.832,2.064,12.315,6.2,16.449C543.485,80.283,548.495,82.349,554.382,82.349z"/>
		<path fill="#F49416" d="M656.967,96.854h-16.397v-29.01l-25.436-44.461h17.763l15.871,27.329l15.871-27.329h17.764l-25.436,44.461
			V96.854z"/>
		<path fill="#F49416" d="M768.644,29.952c5.15,4.381,7.727,11.107,7.727,20.182c0,9.075-2.646,15.713-7.937,19.917
			c-5.291,4.204-13.368,6.306-24.228,6.306h-9.774v20.497h-16.397V23.383h25.961C755.276,23.383,763.494,25.574,768.644,29.952z
			 M756.607,58.857c1.962-2.207,2.945-5.43,2.945-9.669c0-4.239-1.28-7.253-3.838-9.04c-2.558-1.788-6.535-2.681-11.93-2.681h-9.354
			v24.701h11.036C750.932,62.169,754.646,61.065,756.607,58.857z"/>
		<path fill="#F49416" d="M862.557,23.383h16.397v73.472h-16.397V67.95h-29.22v28.905h-16.398V23.383h16.398v30.693h29.22V23.383z"
			/>
		<path fill="#F49416" d="M984.375,47.768c0,11.773-4.66,19.377-13.979,22.81l18.605,26.277h-20.182l-16.292-23.439h-11.351v23.439
			h-16.397V23.383h27.854c11.421,0,19.568,1.929,24.438,5.782C981.939,33.019,984.375,39.22,984.375,47.768z M964.615,56.493
			c2.032-1.821,3.048-4.711,3.048-8.672c0-3.957-1.052-6.674-3.154-8.146c-2.102-1.471-5.78-2.208-11.036-2.208h-12.296v21.757
			h11.981C958.765,59.225,962.582,58.316,964.615,56.493z"/>
	</g>
	<g>
		<path fill="#5E5E5E" d="M454.601,126.605c5.092,4.615,7.64,11.032,7.64,19.25c0,8.221-2.472,14.728-7.413,19.516
			c-4.942,4.792-12.506,7.187-22.692,7.187h-17.549v-52.872h18.154C442.221,119.686,449.507,121.991,454.601,126.605z
			 M453.239,146.083c0-12.102-6.934-18.153-20.801-18.153h-8.925v36.232h9.909c6.403,0,11.308-1.525,14.712-4.577
			C451.538,156.536,453.239,152.034,453.239,146.083z"/>
		<path fill="#5E5E5E" d="M493.782,124.3c-1.059-1.06-1.588-2.321-1.588-3.784c0-1.46,0.529-2.722,1.588-3.78
			c1.059-1.058,2.319-1.589,3.782-1.589c1.462,0,2.723,0.531,3.782,1.589c1.06,1.059,1.588,2.32,1.588,3.78
			c0,1.463-0.528,2.725-1.588,3.784c-1.059,1.058-2.32,1.587-3.782,1.587C496.101,125.887,494.841,125.357,493.782,124.3z
			 M501.724,172.558h-8.472v-40.24h8.472V172.558z"/>
		<path fill="#5E5E5E" d="M571.916,132.317v35.097c0,7.109-1.929,12.442-5.786,15.998c-3.858,3.555-8.812,5.333-14.863,5.333
			c-6.051,0-11.524-1.893-16.414-5.673l4.009-6.429c3.934,2.974,7.904,4.462,11.913,4.462s7.187-1.034,9.531-3.103
			c2.345-2.067,3.517-5.37,3.517-9.908v-5.145c-1.261,2.372-3.063,4.263-5.408,5.675c-2.344,1.41-4.981,2.117-7.904,2.117
			c-5.346,0-9.732-1.865-13.162-5.599c-3.428-3.73-5.144-8.369-5.144-13.917c0-5.545,1.716-10.185,5.144-13.917
			c3.43-3.73,7.804-5.599,13.125-5.599c5.319,0,9.645,2.194,12.971,6.581v-5.975H571.916z M540.526,150.887
			c0,3.304,1.021,6.153,3.063,8.548c2.041,2.395,4.788,3.593,8.243,3.593c3.454,0,6.253-1.159,8.396-3.479
			c2.144-2.32,3.214-5.206,3.214-8.662c0-3.453-1.084-6.38-3.251-8.773c-2.17-2.395-4.968-3.595-8.396-3.595
			s-6.165,1.236-8.206,3.707C541.547,144.697,540.526,147.585,540.526,150.887z"/>
		<path fill="#5E5E5E" d="M605.424,124.3c-1.061-1.06-1.59-2.321-1.59-3.784c0-1.46,0.529-2.722,1.59-3.78
			c1.058-1.058,2.317-1.589,3.78-1.589c1.461,0,2.723,0.531,3.782,1.589c1.061,1.059,1.589,2.32,1.589,3.78
			c0,1.463-0.528,2.725-1.589,3.784c-1.06,1.058-2.321,1.587-3.782,1.587C607.741,125.887,606.481,125.357,605.424,124.3z
			 M613.364,172.558h-8.472v-40.24h8.472V172.558z"/>
		<path fill="#5E5E5E" d="M656.782,139.125v20.424c0,1.916,0.503,3.44,1.511,4.575s2.421,1.702,4.237,1.702
			c1.814,0,3.555-0.882,5.22-2.648l3.479,5.977c-2.977,2.673-6.267,4.009-9.869,4.009c-3.606,0-6.684-1.248-9.229-3.745
			c-2.548-2.495-3.819-5.861-3.819-10.097v-20.196h-5.069v-6.808h5.069v-12.632h8.472v12.632h10.59v6.808H656.782z"/>
		<path fill="#5E5E5E" d="M731.285,172.558h-7.716v-5.371c-3.325,3.984-7.789,5.977-13.388,5.977c-4.186,0-7.653-1.186-10.399-3.556
			c-2.749-2.369-4.123-5.533-4.123-9.492c0-3.958,1.463-6.922,4.387-8.889c2.926-1.966,6.884-2.95,11.876-2.95h10.968v-1.512
			c0-5.345-2.977-8.019-8.924-8.019c-3.734,0-7.616,1.363-11.65,4.085l-3.78-5.294c4.889-3.885,10.438-5.826,16.64-5.826
			c4.738,0,8.61,1.2,11.611,3.595c3,2.394,4.499,6.163,4.499,11.307V172.558z M722.815,157.58v-3.403h-9.532
			c-6.102,0-9.153,1.917-9.153,5.749c0,1.966,0.757,3.468,2.271,4.5c1.513,1.034,3.617,1.552,6.316,1.552
			c2.696,0,5.055-0.757,7.071-2.27C721.805,162.194,722.815,160.152,722.815,157.58z"/>
		<path fill="#5E5E5E" d="M772.28,172.558h-8.472v-56.125h8.472V172.558z"/>
	</g>
	<g>
		<circle fill="#F49416" cx="238.901" cy="98.338" r="18.221"/>
		<circle fill="#F49416" cx="309.893" cy="100.694" r="18.221"/>
	</g>
	<rect x="18.789" y="88.568" fill="#5E5E5E" width="160.218" height="21.896"/>
	<rect x="361.406" y="9.408" fill="#5E5E5E" width="13.748" height="180.216"/>
</g>
</svg>
